# xmcd
#
# Track frame offsets: 
#        150
#        15293
#        26381
#        39511
#        57869
#        75288
#        96318
#        111574
#        114242
#        129485
#        136428
#        153321
#        180000
#        197036
#        220547
#        240374
#        269896
#        295306
#
# Disc length: 4151 seconds
#
# Revision: 0
# Processed by: cddbd v1.5.2PL0 Copyright (c) Steve Scherf et al.
# Submitted via: ExactAudioCopy v1.1
#
DISCID=e9103512
DTITLE=Supercharge - Big Blow
DYEAR=1900
DGENRE=Swing
TTITLE0=Pink Champagne
TTITLE1=Swing Brother Swing
TTITLE2=Mellow Saxophone
TTITLE3=Eat That Chicken
TTITLE4=Memphis Soul Stew
TTITLE5=Sie La Dude
TTITLE6=I'm A Boogie Man
TTITLE7=Goodbye Uwe
TTITLE8=Fool For You
TTITLE9=Eve
TTITLE10=Every Time We Say Goodbye
TTITLE11=Rainy Night in Georgia
TTITLE12=Circles
TTITLE13=I Ain't Got Nothing But The Blues
TTITLE14=Love And Happiness
TTITLE15=Unchain My Heart
TTITLE16=Breakin Up Someones Home
TTITLE17=Gangster Of Love
EXTD=
EXTT0=
EXTT1=
EXTT2=
EXTT3=
EXTT4=
EXTT5=
EXTT6=
EXTT7=
EXTT8=
EXTT9=
EXTT10=
EXTT11=
EXTT12=
EXTT13=
EXTT14=
EXTT15=
EXTT16=
EXTT17=
PLAYORDER=
